<svg width="487" height="509" viewBox="0 0 487 509" fill="none" xmlns="http://www.w3.org/2000/svg">
<g clip-path="url(#clip0_1980_342)">
<path d="M246.756 191.926C262.062 191.926 275.751 195.222 287.723 201.908H287.724C299.888 208.348 309.472 217.439 316.414 229.139L317.082 230.23C323.87 241.566 327.206 254.744 327.206 269.64C327.206 282.774 325.096 294.333 320.755 304.221C316.489 313.937 310.68 322.708 303.343 330.519L303.324 330.538L303.306 330.557C296.121 337.973 287.915 345.368 278.696 352.743C273.363 357.055 269.646 362.701 267.556 369.808L267.548 369.835C265.312 377.212 264.278 382.993 264.278 387.288C264.278 393.12 262.392 398.213 258.549 402.33L258.508 402.374L258.465 402.417C254.51 406.372 249.346 408.229 243.336 408.229C237.504 408.229 232.412 406.343 228.294 402.5L228.206 402.418L228.123 402.33C224.28 398.213 222.394 393.12 222.394 387.288C222.394 377.8 224.826 367.63 229.524 356.822C234.313 345.581 241.717 335.697 251.66 327.175C257.985 321.754 263.732 316.456 268.905 311.283C274.096 306.092 278.189 300.271 281.204 293.81L281.215 293.787L281.226 293.766C284.361 287.286 286.006 279.286 286.006 269.64C286.006 262.916 284.437 256.644 281.291 250.772C278.176 244.958 273.72 240.283 267.854 236.722L267.79 236.683L267.729 236.642C262.269 233.002 255.347 231.074 246.756 231.074C235.991 231.074 227.395 233.053 220.77 236.78C214.083 240.542 209.121 245.716 205.794 252.346C202.643 259.081 201.008 267.094 201.008 276.479C201.008 282.312 199.121 287.404 195.278 291.521L195.237 291.566L195.195 291.608C191.241 295.563 186.076 297.422 180.066 297.422C174.234 297.422 169.141 295.535 165.023 291.692L164.936 291.61L164.854 291.521C161.011 287.404 159.124 282.312 159.124 276.479C159.124 260.007 162.658 245.373 169.838 232.689L169.863 232.646C177.259 220.002 187.533 210.093 200.62 202.955C213.978 195.565 229.393 191.926 246.756 191.926Z" fill="white" stroke="white" stroke-width="7"/>
<path d="M243.214 432.198C262.809 448.416 288.487 504.5 243.214 509.23L243.214 509.219C197.942 504.488 223.619 448.403 243.214 432.186L243.214 432.198Z" fill="#5BB6FF"/>
<path d="M128.627 235C153.427 168.6 213.627 154 243.627 154.5V0C234.427 0.4 230.46 7.83333 229.627 11V26.5005C129.128 28 16.6282 98.5 0.126758 224C-0.873215 230 4.12822 238.5 12.1268 232.5C61.1282 192.5 111.128 218 128.627 235Z" fill="white"/>
<path d="M358.628 235C333.828 168.6 273.628 154 243.628 154.5V0C252.828 0.4 256.795 7.83333 257.628 11V26.5005C358.127 28 470.627 98.5 487.128 224C488.128 230 483.127 238.5 475.128 232.5C426.127 192.5 376.127 218 358.628 235Z" fill="white"/>
</g>
<defs>
<clipPath id="clip0_1980_342">
<rect width="487" height="509" fill="white"/>
</clipPath>
</defs>
</svg>
