<svg width="528" height="569" viewBox="0 0 528 569" fill="none" xmlns="http://www.w3.org/2000/svg">
<path d="M267.287 276.5C272.944 276.5 277.638 277.984 280.889 281.382C284.119 284.759 285.514 289.603 285.514 295.441V352.59C285.514 367.563 283.583 380.387 279.638 390.991L279.62 391.038C275.496 401.47 270.495 410.395 264.593 417.772L264.587 417.78C258.596 425.209 252.709 431.817 246.93 437.6C241.306 443.458 236.647 449.289 232.936 455.088L232.917 455.117L232.552 455.665C229.037 461.052 227.254 467.292 227.254 474.471C227.254 486.281 230.48 494.163 236.376 498.82L236.955 499.262L236.998 499.293C243.588 504.345 252.529 506.998 264.07 506.998C273.336 506.998 280.155 505.253 284.822 502.071L284.854 502.049L284.889 502.027C289.778 498.916 293.522 494.946 296.169 490.105C298.737 485.203 300.953 480.308 302.817 475.42C304.561 470.206 306.945 465.667 309.999 461.846C313.227 457.738 318.113 455.887 324.117 455.887C329.716 455.887 334.38 457.221 337.639 460.331C340.919 463.462 342.344 467.979 342.344 473.398C342.344 487.481 338.378 499.712 330.377 509.964L330.372 509.971C322.256 520.3 312.048 528.289 299.785 533.93C287.57 539.549 275.182 542.379 262.641 542.379C249.209 542.379 236.929 539.813 225.841 534.639V534.638C214.475 529.445 205.415 521.756 198.719 511.588V511.587C191.965 501.57 188.656 489.391 188.656 475.186C188.656 468.444 189.905 461.273 192.352 453.688C194.829 446.008 198.455 439.587 203.283 434.505C210.203 427.108 216.533 420.54 222.271 414.801L222.29 414.782L222.31 414.764C227.942 409.366 232.728 403.99 236.683 398.641C240.565 393.389 243.662 387.435 245.967 380.763C248.004 374.179 249.061 365.765 249.061 355.449C249.061 351.232 249.178 296.943 249.422 292.793C249.684 288.337 251.009 284.477 253.534 281.377C256.206 277.79 261.216 276.5 267.287 276.5Z" fill="#5BB6FF" stroke="#5BB6FF" stroke-width="5"/>
<path d="M267 0C405.071 0 517 91.5578 517 204.5C517 211.761 516.535 218.934 515.633 226H511.083C500.269 191.795 468.281 167 430.5 167C392.719 167 360.731 191.795 349.917 226H345.083C334.269 191.795 302.281 167 264.5 167C226.719 167 194.731 191.795 183.917 226H179.083C168.269 191.795 136.281 167 98.5 167C61.0896 167 29.3586 191.312 18.2412 224.997C17.421 218.256 17 211.418 17 204.5C17 91.5578 128.929 0 267 0Z" fill="#5BB6FF"/>
<circle cx="357.5" cy="289.5" r="31.5" fill="#5BB6FF"/>
</svg>
